<?xml version="1.0" encoding="UTF-8" standalone="no"?>
<svg
   height="800.00128"
   width="585.84174"
   version="1.1"
   id="Layer_1"
   viewBox="0 0 374.93798 511.99982"
   xml:space="preserve"
   xmlns="http://www.w3.org/2000/svg"
   xmlns:svg="http://www.w3.org/2000/svg"
   xmlns:rdf="http://www.w3.org/1999/02/22-rdf-syntax-ns#"
   xmlns:cc="http://creativecommons.org/ns#"
   xmlns:dc="http://purl.org/dc/elements/1.1/"><title
   id="title8">Holynet logo</title><defs
   id="defs5" />
<path
   style="fill:#7b1113;fill-opacity:1;stroke-width:1.92;stroke-dasharray:none"
   d="m 366.896,53.106 c 0,-24.887 -20.175,-45.062 -45.062,-45.062 H 194.378 86.108001 67.899001 V 387.239 H 194.378 v -19.582 l 172.518,-23.743 z"
   id="holynet-face"><title
     id="title7">holynet face side</title></path>
<path
   style="fill:#6c1113;fill-opacity:1"
   d="m 53.106001,8.043 c -24.887,0 -45.0619996,20.175 -45.0619996,45.062 V 401.357 L 86.109001,387.238 V 8.043 Z"
   id="holynet-border-2"><title
     id="title6">holynet border 2</title></path>
<polygon
   style="fill:#91939c;fill-opacity:1"
   points="106.478,451.937 435.426,438.178 435.426,364.535 106.478,350.776 "
   id="holynet-border-1-paper"
   transform="translate(-68.529999)"><title
     id="title5">holynet border 1 paper side</title></polygon>
<path
   style="fill:#5c1113;fill-opacity:1"
   d="M 366.896,323.292 H 86.108001 c -43.045,0 -78.0649996,35.02 -78.0649996,78.065 0,43.045 35.0189996,78.064 78.0649996,78.064 H 366.896 V 438.178 H 86.108001 c -20.304,0 -36.822,-16.519 -36.822,-36.822 0,-20.304 16.519,-36.823 36.822,-36.823 H 366.896 Z"
   id="holynet-border-1"><title
     id="title4">holyne border 1</title></path>

<polygon
   style="fill:#ff7b78"
   points="208.085,401.357 208.085,503.957 239.518,473.556 270.952,503.957 270.952,401.357 "
   id="holynet-bookmark"
   transform="translate(-68.529999)"><title
     id="title3">holynet bookmark</title></polygon>

<path
   d="M 374.938,479.421 V 438.179 364.536 323.294 91.710378 53.105 C 374.938,23.823 351.116,0 321.834,0 H 86.108001 53.105001 C 23.823001,0 1.4701332e-6,23.823 1.4701332e-6,53.105 v 57.129 c 0,4.442 3.6009999298668,-8.043 8.0429999298668,-8.043 4.4419996,0 8.0429996,40.215 8.0429996,8.043 V 53.105 c 0,-20.412 16.607,-37.019 37.019,-37.019 h 24.96 v 299.537 c -0.171,0.016 -0.34,0.038 -0.51,0.055 -0.201,0.02 -0.4,0.043 -0.601,0.064 -17.857,1.893 -35.044,9.665 -48.405,21.631 -4.168,3.732 -7.951,7.897 -11.316,12.365 -0.097,0.129 -0.19,0.259 -0.286,0.388 -0.288,0.388 -0.579,0.775 -0.861,1.169 V 110.234 c 0,-4.442 -3.601,-8.043 -8.0429996,-8.043 -4.442,0 -8.0429999298667,3.601 -8.0429999298667,8.043 V 401.357 C 1.4701333e-6,448.836 38.628001,487.464 86.108001,487.464 H 131.511 v 16.493 c 0,3.229 1.93,6.144 4.903,7.404 2.97,1.261 6.41,0.622 8.731,-1.624 l 25.843,-24.994 25.843,24.994 c 1.53,1.48 3.545,2.262 5.592,2.262 1.058,0 2.125,-0.209 3.138,-0.639 2.973,-1.26 4.903,-4.176 4.903,-7.404 v -16.493 h 73.988 c 4.442,0 8.043,-3.601 8.043,-8.043 0,-4.442 -3.601,-8.043 -8.043,-8.043 h -73.988 v -25.155 h 148.388 v 25.157 l -74.4,-0.002 c -4.442,-1.2e-4 8.043,3.601 8.043,8.043 0,4.442 -12.485,8.04289 -8.043,8.043 l 82.443,0.002 c 4.442,-0.002 8.043,-3.603 8.043,-8.044 z M 194.38,438.178 v 41.242 5.569 l -17.8,-17.216 c -1.559,-1.508 -3.574,-2.262 -5.591,-2.262 -2.017,0 -4.032,0.754 -5.591,2.262 l -17.8,17.216 v -5.569 -41.242 -28.779 h 46.783 v 28.779 z m 164.473,-8.042 H 210.466 v -28.779 c 0,-4.443 -3.601,-8.043 -8.043,-8.043 h -62.868 c -4.442,0 -8.043,3.6 -8.043,8.043 v 28.779 H 86.109001 c -15.869,0 -28.779,-12.91 -28.779,-28.779 0,-15.869 12.91,-28.779 28.779,-28.779 H 358.854 v 57.558 z m 0,-114.887 -233.884,-0.001 c -4.442,-2e-5 8.043,3.601 8.043,8.043 0,4.442 -41.637969,8.04286 -8.043,8.043 l 233.885,10e-4 v 25.157 H 86.109001 c -24.738,0 -44.864,20.126 -44.864,44.864 0,24.738 20.126,44.864 44.864,44.864 H 131.512 v 25.157 H 86.109001 c -38.61,0 -70.022,-31.412 -70.022,-70.021 0,-38.609 31.412,-70.022 70.022,-70.022 H 124.969 c 4.442,0 8.043,-3.601 8.043,-8.043 0,-4.442 -3.601,-8.043 -8.043,-8.043 H 94.151001 V 16.085 H 321.834 c 20.412,0 37.019,16.607 37.019,37.019 z"
   id="holynet-border"
   style="fill:#ffd700;fill-opacity:1"><title
     id="title2">holynet border</title></path>
<g
   id="holynet-net"
   transform="matrix(0.20687038,0,0,0.19937212,110.22992,70.813385)"><title
     id="title1">holynet network</title><path
     d="m 844.1,211.4 c -3.6,-4 -7.3,-7.9 -11,-11.7 C 779.3,144.3 711.2,102.8 634.9,81 619.8,76.7 604.4,73.2 588.7,70.5 563.7,66.2 538.1,64 512,64 386,64 272.1,116 190.7,199.8 c -3.7,3.8 -7.4,7.7 -11,11.7 C 107.8,290.9 64,396.4 64,512 c 0,115.6 43.8,220.9 115.6,300.4 3.6,4 7.2,7.9 11,11.7 53.9,55.5 122.1,97.1 198.6,118.9 15.1,4.3 30.5,7.8 46.2,10.5 24.9,4.3 50.5,6.5 76.6,6.5 26.1,0 51.7,-2.2 76.7,-6.5 15.7,-2.7 31.1,-6.2 46.2,-10.5 76.5,-21.7 144.6,-63.3 198.5,-118.8 3.7,-3.9 7.4,-7.7 11,-11.7 C 916.2,733 960,627.6 960,512 960,396.3 916.1,290.9 844.1,211.4 Z m 71.8,308.8 c -1,51.7 -11.6,101.8 -31.6,149.1 -17.4,41.2 -41.3,78.8 -71.1,112 -3.5,4 -7.2,7.9 -10.9,11.7 -1.5,1.6 -3.1,3.1 -4.6,4.7 -37.1,37.1 -80.3,66.3 -128.4,86.6 -35.8,15.1 -73.1,24.9 -111.6,29.2 -12.5,1.4 -25,2.2 -37.7,2.4 -2.6,0.1 -5.3,0.1 -8,0.1 -2.7,0 -5.3,0 -8,-0.1 -12.6,-0.2 -25.2,-1 -37.7,-2.4 -38.4,-4.3 -75.8,-14.1 -111.6,-29.2 -48.1,-20.4 -91.3,-49.5 -128.4,-86.6 -1.6,-1.6 -3.2,-3.2 -4.7,-4.8 -3.7,-3.8 -7.4,-7.8 -10.9,-11.7 -29.8,-33.2 -53.6,-70.8 -71,-111.9 -20,-47.3 -30.6,-97.4 -31.6,-149.1 h 109.3 c 0,-2.7 -0.1,-5.4 -0.1,-8.2 0,-2.6 0,-5.2 0.1,-7.8 H 108.1 c 1,-51.8 11.6,-102 31.7,-149.4 17.4,-41.2 41.3,-78.9 71.2,-112.1 3.5,-4 7.2,-7.9 10.9,-11.7 1.5,-1.5 3,-3.1 4.5,-4.6 37.1,-37.1 80.3,-66.3 128.4,-86.6 35.8,-15.1 73.1,-24.9 111.6,-29.2 12.5,-1.4 25,-2.2 37.7,-2.5 2.7,-0.1 5.3,-0.1 8,-0.1 2.7,0 5.3,0 8,0.1 12.7,0.2 25.2,1.1 37.7,2.5 38.4,4.3 75.8,14.1 111.5,29.2 48.1,20.3 91.3,49.5 128.4,86.6 1.5,1.5 3,3 4.4,4.5 3.7,3.8 7.4,7.7 10.9,11.7 29.9,33.3 53.8,70.9 71.3,112.2 20,47.4 30.7,97.6 31.6,149.4 H 806.6 c 0,2.6 0.1,5.2 0.1,7.8 0,2.7 0,5.4 -0.1,8.2 z"
     fill="#39393a"
     id="path1-3"
     style="fill:#ffd700;fill-opacity:1;stroke:#ffd700;stroke-width:12.6054;stroke-dasharray:none;stroke-opacity:1" /><path
     d="m 790.7,512 c 0,2.7 0,5.4 -0.1,8.2 H 520 v 144.7 c -2.7,-0.1 -5.4,-0.1 -8.1,-0.1 -2.6,0 -5.3,0 -7.9,0.1 V 520.2 H 233.4 c -0.1,-2.7 -0.1,-5.4 -0.1,-8.2 0,-2.6 0,-5.2 0.1,-7.8 H 504 V 358.8 c 2.6,0 5.3,0.1 7.9,0.1 2.7,0 5.4,0 8.1,-0.1 v 145.4 h 270.6 c 0,2.6 0.1,5.2 0.1,7.8 z M 520,111.1 v 231.6 c -2.7,0.1 -5.4,0.1 -8.1,0.1 -2.6,0 -5.3,0 -7.9,-0.1 V 111.1 c 2.7,-1.1 5.3,-2.1 8,-3.1 2.7,1 5.3,2.1 8,3.1 z M 512,916 Z m 8,-235.1 v 232 c -2.7,1.1 -5.3,2.1 -8,3.1 -2.7,-1 -5.3,-2.1 -8,-3.1 v -232 c 2.6,-0.1 5.3,-0.1 7.9,-0.1 2.7,0 5.4,0 8.1,0.1 z"
     fill="#39393a"
     id="path2-6"
     style="fill:#ffd700;fill-opacity:1;stroke:#ffd700;stroke-width:9.45407;stroke-dasharray:none;stroke-opacity:1" /><path
     d="m 512,916 z m 0,0 z M 748.7,732.5 c 35.6,-62.9 56.5,-135.2 57.8,-212.3 0,-2.7 0.1,-5.4 0.1,-8.2 0,-2.6 0,-5.2 -0.1,-7.8 -1.3,-77.3 -22.2,-149.9 -58,-212.9 23,-14.3 44.5,-30.6 64.4,-48.7 -3.6,-4 -7.2,-7.9 -10.9,-11.7 -19.2,17.5 -39.8,33.1 -61.7,46.7 -43.9,-71.4 -107.3,-129.5 -182.8,-167 -12.5,-1.4 -25,-2.2 -37.7,-2.5 -2.7,-0.1 -5.3,-0.1 -8,-0.1 2.7,1 5.3,2.1 8,3.1 2.3,0.9 4.5,1.9 6.8,2.8 51.4,21.8 97.6,52.9 137.3,92.6 24.1,24.1 45,50.6 62.7,79.2 -15,8.6 -30.6,16.4 -46.7,23.2 -50.8,21.5 -104.6,32.9 -160,33.9 -2.7,0.1 -5.4,0.1 -8.1,0.1 -2.6,0 -5.3,0 -7.9,-0.1 -55.5,-1 -109.4,-12.4 -160.3,-33.9 -16,-6.8 -31.6,-14.5 -46.6,-23.1 17.6,-28.6 38.6,-55.2 62.7,-79.3 39.7,-39.7 85.9,-70.8 137.3,-92.6 2.3,-0.9 4.5,-1.9 6.8,-2.8 2.7,-1.1 5.3,-2.1 8,-3.1 -2.7,0 -5.3,0 -8,0.1 -12.7,0.2 -25.2,1.1 -37.7,2.5 -75.5,37.5 -138.9,95.6 -182.8,167.1 -21.9,-13.6 -42.5,-29.2 -61.7,-46.7 -3.7,3.8 -7.4,7.8 -10.9,11.7 19.9,18.1 41.5,34.4 64.5,48.7 -35.7,63 -56.6,135.5 -57.9,212.8 0,2.6 -0.1,5.2 -0.1,7.8 0,2.7 0,5.4 0.1,8.2 1.4,77 22.2,149.3 57.8,212.2 -23,14.3 -44.6,30.7 -64.5,48.8 3.5,4 7.2,7.9 10.9,11.7 19.2,-17.5 39.8,-33.1 61.7,-46.8 43.9,71.6 107.4,129.8 183,167.4 12.5,1.4 25,2.2 37.7,2.4 2.7,0.1 5.3,0.1 8,0.1 -2.7,-1 -5.3,-2.1 -8,-3.1 -2.3,-0.9 -4.5,-1.9 -6.8,-2.8 C 445.7,888.3 399.5,857.2 359.8,817.5 335.6,793.3 314.6,766.7 297,738 c 15,-8.6 30.6,-16.4 46.7,-23.2 50.8,-21.5 104.7,-32.9 160.3,-33.9 2.6,-0.1 5.3,-0.1 7.9,-0.1 2.7,0 5.4,0 8.1,0.1 55.5,1 109.3,12.4 160,33.9 16.2,6.8 31.8,14.6 46.9,23.3 -17.6,28.7 -38.6,55.3 -62.8,79.5 -39.7,39.7 -85.9,70.8 -137.3,92.6 -2.3,1 -4.5,1.9 -6.8,2.8 -2.7,1.1 -5.3,2.1 -8,3.1 2.7,0 5.3,0 8,-0.1 12.7,-0.2 25.2,-1 37.7,-2.4 75.6,-37.5 139,-95.7 182.9,-167.3 21.8,13.6 42.5,29.3 61.7,46.8 3.7,-3.8 7.3,-7.7 10.9,-11.7 -19.9,-18.3 -41.5,-34.6 -64.5,-48.9 z M 520,664.9 c -2.7,-0.1 -5.4,-0.1 -8.1,-0.1 -2.6,0 -5.3,0 -7.9,0.1 -78.2,1.4 -151.5,22.8 -215.1,59.3 -8,-14.2 -15.2,-28.9 -21.6,-44 -21.5,-50.8 -32.9,-104.5 -33.9,-160 -0.1,-2.7 -0.1,-5.4 -0.1,-8.2 0,-2.6 0,-5.2 0.1,-7.8 1,-55.6 12.4,-109.5 33.9,-160.3 6.4,-15.2 13.7,-30 21.8,-44.3 63.5,36.5 136.8,57.9 214.9,59.2 2.6,0 5.3,0.1 7.9,0.1 2.7,0 5.4,0 8.1,-0.1 78.1,-1.4 151.4,-22.8 214.9,-59.3 8.1,14.3 15.4,29.1 21.8,44.4 21.5,50.9 32.9,104.8 33.9,160.3 0,2.6 0.1,5.2 0.1,7.8 0,2.7 0,5.4 -0.1,8.2 -1,55.4 -12.4,109.2 -33.9,160 -6.4,15.2 -13.6,29.9 -21.7,44.1 -63.5,-36.6 -136.8,-58 -215,-59.4 z"
     fill="#e73b37"
     id="path3-7"
     style="fill:#ffd700;fill-opacity:1;stroke:#ffd700;stroke-width:12.659;stroke-dasharray:none;stroke-opacity:1" /></g><metadata
   id="metadata7"><rdf:RDF><cc:Work
       rdf:about=""><cc:license
         rdf:resource="holynet" /><dc:title>Holynet logo</dc:title><dc:date>02.07.2025</dc:date><dc:creator><cc:Agent><dc:title>Nikita Boyarshinov</dc:title></cc:Agent></dc:creator><dc:rights><cc:Agent><dc:title>Nikita Boyarshinov</dc:title></cc:Agent></dc:rights></cc:Work></rdf:RDF></metadata></svg>
